<svg width="72" height="14" viewBox="0 0 72 14" fill="none" xmlns="http://www.w3.org/2000/svg">
<path d="M0 13.2985H6.18671C7.05336 13.3161 7.91493 13.1662 8.72092 12.8576C9.5269 12.549 10.2611 12.0879 10.8805 11.5013C11.4998 10.9147 11.9919 10.2144 12.3278 9.44143C12.6638 8.66849 12.8368 7.83845 12.8368 6.99999C12.8368 6.16153 12.6638 5.33149 12.3278 4.55855C11.9919 3.78561 11.4998 3.08532 10.8805 2.49871C10.2611 1.91209 9.5269 1.45096 8.72092 1.14235C7.91493 0.833741 7.05336 0.68387 6.18671 0.7015H0V13.2985ZM2.73601 10.7793V3.21976H6.05329C6.57267 3.21012 7.08882 3.30075 7.57157 3.48634C8.05432 3.67192 8.49396 3.94875 8.86479 4.30062C9.23563 4.65249 9.53021 5.07234 9.73131 5.53564C9.9324 5.99893 10.036 6.49636 10.036 6.99883C10.036 7.5013 9.9324 7.99873 9.73131 8.46202C9.53021 8.92531 9.23563 9.34516 8.86479 9.69703C8.49396 10.0489 8.05432 10.3257 7.57157 10.5113C7.08882 10.6969 6.57267 10.7875 6.05329 10.7779L2.73601 10.7793ZM14.6088 6.99999C14.6088 10.7287 17.6362 13.5 21.4795 13.5C22.8119 13.5171 24.1193 13.1501 25.2352 12.4457C26.3511 11.7412 27.2248 10.7314 27.745 9.54475H24.4546C24.115 9.99341 23.6649 10.3529 23.1451 10.5904C22.6254 10.828 22.0525 10.9362 21.4786 10.9051C20.5472 10.9464 19.6318 10.6605 18.9012 10.1003C18.1706 9.54 17.6741 8.74312 17.5032 7.85658H28.1424C28.1688 7.57801 28.1947 7.30224 28.1947 6.99999C28.2143 6.14179 28.0542 5.28861 27.7239 4.49187C27.3936 3.69513 26.9 2.9713 26.2728 2.36399C25.6456 1.75668 24.8978 1.27845 24.0744 0.958098C23.2511 0.63775 22.3692 0.481923 21.4819 0.49999C17.6386 0.49999 14.6112 3.27131 14.6112 6.99999H14.6088ZM17.6914 5.53841C17.9737 4.79283 18.4924 4.15265 19.1735 3.7093C19.8545 3.26595 20.663 3.04211 21.4834 3.0698C22.2798 3.04795 23.0621 3.27684 23.7125 3.72202C24.363 4.1672 24.8464 4.80463 25.0901 5.53841H17.6914ZM28.1952 13.298H31.8283L35.6203 8.96484L39.3322 13.298H42.9653L37.463 6.84864L42.8333 0.7015H39.2529L28.1952 13.298ZM28.3531 0.701018L32.9865 5.91587L34.7506 3.95102L31.9339 0.701018H28.3531ZM43.0704 6.99999C43.0704 10.7287 46.0978 13.5 49.9411 13.5C51.4738 13.5356 52.971 13.0513 54.1731 12.1309C55.3752 11.2105 56.2064 9.91216 56.5224 8.46108H53.5742C53.3195 9.19129 52.8288 9.82297 52.1747 10.2629C51.5205 10.7029 50.7375 10.9279 49.9411 10.9046C48.8704 10.9046 47.8435 10.4932 47.0863 9.76085C46.3292 9.0285 45.9038 8.03523 45.9038 6.99954C45.9038 5.96384 46.3292 4.97054 47.0863 4.23819C47.8435 3.50584 48.8704 3.09442 49.9411 3.09442C50.7339 3.07123 51.5137 3.29322 52.1671 3.72817C52.8205 4.16312 53.3134 4.78833 53.5742 5.51288H56.5224C56.2006 4.06664 55.3671 2.77438 54.1656 1.85898C52.9642 0.943587 51.4701 0.462459 49.9411 0.498602C46.0978 0.498602 43.0704 3.26992 43.0704 6.9986V6.99999ZM58.1549 6.9986C58.1549 10.7273 61.235 13.4986 65.0784 13.4986C68.9218 13.4986 72.0019 10.7273 72.0019 6.9986C72.0019 3.26992 68.9218 0.498602 65.0784 0.498602C61.235 0.498602 58.1549 3.26992 58.1549 6.9986ZM60.9715 6.9986C60.9576 6.21007 61.1866 5.43536 61.6294 4.77315C62.0722 4.11095 62.7088 3.5912 63.458 3.28009C64.2072 2.96899 65.0352 2.88062 65.8365 3.02622C66.6379 3.17181 67.3763 3.54477 67.9577 4.09764C68.5391 4.65051 68.9373 5.35827 69.1015 6.13076C69.2657 6.90325 69.1885 7.70551 68.8797 8.43541C68.5709 9.16531 68.0445 9.78983 67.3676 10.2294C66.6906 10.6689 65.8937 10.9037 65.0784 10.9037C64.54 10.9215 64.0035 10.8331 63.5015 10.644C62.9995 10.4549 62.5426 10.169 62.1584 9.80375C61.7742 9.43847 61.4709 9.00142 61.2669 8.51918C61.0628 8.03693 60.9623 7.51959 60.9715 6.9986Z" fill="white"/>
</svg>
