<svg width="44" height="16" viewBox="0 0 44 16" fill="none" xmlns="http://www.w3.org/2000/svg">
<path d="M4.61988 3.78668H1.07422V5.15557H4.56488C6.37622 5.15557 8.30488 5.89513 8.30488 8.35557C8.30488 10.816 6.37988 11.5556 4.56488 11.5556H2.52255V6.50668H1.07422V12.9245H4.61988C7.31122 12.9245 9.81188 11.5022 9.81188 8.35557C9.81188 5.2089 7.31122 3.78668 4.61988 3.78668Z" fill="black"/>
<path d="M16.1339 3.58398C15.4877 3.57627 14.8463 3.69207 14.2462 3.92474C13.6462 4.15742 13.0993 4.50242 12.6367 4.94005C12.1742 5.37768 11.8051 5.89938 11.5504 6.47534C11.2958 7.0513 11.1607 7.67026 11.1527 8.29687C11.1448 8.92348 11.2642 9.54547 11.5041 10.1273C11.7441 10.7092 12.0999 11.2395 12.5512 11.6881C13.0025 12.1366 13.5405 12.4945 14.1344 12.7414C14.7284 12.9883 15.3667 13.1194 16.0129 13.1271H16.1339C18.2715 13.1271 20.2332 11.9253 20.8272 10.0195H19.2542C18.7959 11.0222 17.7655 11.7333 16.1632 11.7333C15.2922 11.7554 14.4461 11.4497 13.8022 10.8804C13.1584 10.311 12.7667 9.5222 12.7092 8.67909H20.9519C20.9788 8.50852 20.9911 8.33608 20.9885 8.16354C20.9769 6.94073 20.4661 5.77222 19.5679 4.91389C18.6696 4.05555 17.4573 3.57734 16.1962 3.58398H16.1339ZM12.8339 7.32087C13.0459 6.64003 13.4793 6.04395 14.0695 5.62165C14.6596 5.19935 15.3748 4.97348 16.1082 4.97776C17.6519 4.97776 18.9315 5.7742 19.3312 7.3102L12.8339 7.32087Z" fill="black"/>
<path d="M27.1121 4.97781C28.5787 4.97781 29.6311 5.57158 30.1811 6.6987H31.7871C31.4566 5.76044 30.8237 4.9501 29.9819 4.38734C29.1401 3.82457 28.1339 3.5392 27.1121 3.57336C25.807 3.57336 24.5554 4.07608 23.6326 4.97092C22.7098 5.86576 22.1914 7.07942 22.1914 8.34492C22.1914 9.61041 22.7098 10.8241 23.6326 11.7189C24.5554 12.6138 25.807 13.1165 27.1121 13.1165C28.1317 13.1519 29.1361 12.8691 29.9776 12.3097C30.8192 11.7503 31.4534 10.9439 31.7871 10.0089H30.1811C29.6311 11.2036 28.5421 11.7334 27.1121 11.7334C26.1912 11.7334 25.308 11.3786 24.6568 10.7472C24.0056 10.1157 23.6397 9.25926 23.6397 8.36625C23.6397 7.47324 24.0056 6.6168 24.6568 5.98534C25.308 5.35389 26.1912 4.99914 27.1121 4.99914V4.97781Z" fill="black"/>
<path d="M41.4774 3.78667V5.24801C41.047 4.71295 40.4929 4.28355 39.8598 3.99449C39.2266 3.70543 38.5323 3.56482 37.8328 3.58401C36.5277 3.58401 35.2761 4.08672 34.3533 4.98156C33.4305 5.8764 32.9121 7.09007 32.9121 8.35556C32.9121 9.62106 33.4305 10.8347 34.3533 11.7296C35.2761 12.6244 36.5277 13.1271 37.8328 13.1271C38.5322 13.146 39.2265 13.0053 39.8596 12.7162C40.4927 12.4272 41.0468 11.998 41.4774 11.4631V12.9244H42.9258V3.78667H41.4774ZM37.9648 11.7333C37.08 11.6776 36.2502 11.2975 35.6439 10.6702C35.0377 10.0429 34.7003 9.21533 34.7003 8.35556C34.7003 7.49579 35.0377 6.66825 35.6439 6.04091C36.2502 5.41358 37.08 5.03348 37.9648 4.97778C38.4109 4.96453 38.8554 5.0369 39.2727 5.19073C39.6899 5.34457 40.0717 5.57685 40.396 5.87421C40.7204 6.17157 40.981 6.52816 41.1628 6.92348C41.3446 7.31881 41.4441 7.74507 41.4554 8.17778C41.4591 8.24529 41.4591 8.31294 41.4554 8.38045C41.4594 9.26104 41.1044 10.1075 40.4678 10.7355C39.8312 11.3634 38.9645 11.7221 38.0564 11.7333H37.9648Z" fill="black"/>
</svg>
